<svg width="76" height="76" viewBox="0 0 76 76" fill="none" xmlns="http://www.w3.org/2000/svg">
<path d="M34.8335 6.33398H28.5002C12.6668 6.33398 6.3335 12.6673 6.3335 28.5006V47.5006C6.3335 63.334 12.6668 69.6673 28.5002 69.6673H47.5002C63.3335 69.6673 69.6668 63.334 69.6668 47.5006V41.1673" stroke="#331E60" stroke-width="1.5" stroke-linecap="round" stroke-linejoin="round"/>
<path d="M50.7934 9.56267L25.8401 34.516C24.8901 35.466 23.9401 37.3343 23.7501 38.696L22.3884 48.2277C21.8818 51.6793 24.3201 54.086 27.7718 53.611L37.3034 52.2493C38.6334 52.0593 40.5018 51.1093 41.4834 50.1593L66.4368 25.206C70.7434 20.8993 72.7701 15.896 66.4368 9.56267C60.1034 3.22934 55.1001 5.256 50.7934 9.56267Z" stroke="#331E60" stroke-width="1.5" stroke-miterlimit="10" stroke-linecap="round" stroke-linejoin="round"/>
<path d="M47.2148 13.1426C49.3365 20.7109 55.2582 26.6326 62.8582 28.7859" stroke="#331E60" stroke-width="1.5" stroke-miterlimit="10" stroke-linecap="round" stroke-linejoin="round"/>
</svg>
