<svg width="212" height="31" viewBox="0 0 212 31" fill="none" xmlns="http://www.w3.org/2000/svg">
<path d="M3.06802 14.5449V24.2621H0V0.267268H8.0919C9.05816 0.24669 10.0189 0.419607 10.9187 0.776044C11.8185 1.13248 12.6395 1.66538 13.3344 2.34401C14.0354 2.98095 14.5934 3.76198 14.9711 4.63472C15.3488 5.50746 15.5374 6.45171 15.5242 7.40413C15.5449 8.36274 15.3599 9.31452 14.9819 10.194C14.6038 11.0735 14.0418 11.8599 13.3344 12.4991C12.6381 13.1737 11.8161 13.702 10.9162 14.0532C10.0163 14.4043 9.05627 14.5715 8.0919 14.5449H3.06802ZM3.06802 3.21577V11.5964H8.16093C8.72162 11.6126 9.27952 11.5107 9.79913 11.2973C10.3187 11.0838 10.7887 10.7634 11.1791 10.3565C11.5721 9.97497 11.8838 9.51622 12.0948 9.00849C12.3059 8.50076 12.4119 7.95478 12.4063 7.40413C12.4093 6.85957 12.302 6.32016 12.091 5.81908C11.8799 5.318 11.5696 4.86586 11.1791 4.49049C10.7939 4.07434 10.3257 3.74553 9.80546 3.52578C9.28517 3.30604 8.72464 3.20038 8.16093 3.21577H3.06802Z" fill="black"/>
<path d="M20.5327 24.2622H17.4647V7.84199H20.3832V10.5232H20.5174C20.8861 9.58115 21.5627 8.79498 22.4349 8.29531C23.2734 7.71413 24.2602 7.3899 25.2767 7.36155C26.0466 7.33476 26.8138 7.46659 27.5317 7.74901L26.6036 10.7285C26.025 10.544 25.4185 10.4653 24.8126 10.496C24.2412 10.4973 23.6769 10.6237 23.1585 10.8665C22.6401 11.1093 22.18 11.4628 21.8098 11.9025C20.9784 12.7889 20.5205 13.967 20.5327 15.1881V24.2622Z" fill="black"/>
<path d="M26.8988 16.052C26.8988 13.5258 27.6837 11.4375 29.2535 9.78691C30.0288 8.9743 30.9633 8.33404 31.9974 7.90706C33.0315 7.48008 34.1425 7.27579 35.2592 7.30722C36.371 7.27394 37.4773 7.47754 38.506 7.90477C39.5348 8.33201 40.463 8.9733 41.2303 9.78691C42.8205 11.4375 43.6169 13.5258 43.6195 16.052C43.6221 18.5782 42.8256 20.6666 41.2303 22.3171C40.463 23.1307 39.5348 23.772 38.506 24.1992C37.4773 24.6265 36.371 24.8301 35.2592 24.7968C34.1425 24.8282 33.0315 24.6239 31.9974 24.1969C30.9633 23.77 30.0288 23.1297 29.2535 22.3171C27.6863 20.6666 26.9014 18.5782 26.8988 16.052ZM29.9668 16.052C29.9668 17.8188 30.4782 19.2485 31.5008 20.3411C31.9875 20.8603 32.5738 21.2738 33.2239 21.5564C33.8741 21.8389 34.5744 21.9847 35.2822 21.9847C35.9899 21.9847 36.6902 21.8389 37.3404 21.5564C37.9905 21.2738 38.5768 20.8603 39.0635 20.3411C40.0862 19.2485 40.5975 17.8188 40.5975 16.052C40.6617 14.4827 40.1105 12.9511 39.0635 11.79C38.5825 11.2611 37.9981 10.8389 37.3472 10.5501C36.6962 10.2613 35.9931 10.1121 35.2822 10.1121C34.5712 10.1121 33.8681 10.2613 33.2172 10.5501C32.5663 10.8389 31.9818 11.2611 31.5008 11.79C30.4483 12.9487 29.8914 14.4805 29.9515 16.052H29.9668Z" fill="black"/>
<path d="M50.2388 10.6548V24.2621H47.1708V10.6548H44.1028V7.84195H47.1708V5.463C47.1619 4.70506 47.3027 3.95294 47.585 3.25065C47.848 2.60261 48.2395 2.01583 48.7355 1.52649C49.2401 1.02877 49.8406 0.641057 50.4996 0.387381C51.204 0.119499 51.9521 -0.0119431 52.7047 -7.04024e-05C53.6447 -0.0366112 54.5793 0.158883 55.4276 0.569483L54.5954 3.28164C54.0373 3.01084 53.4234 2.87804 52.8044 2.89419C52.4604 2.88152 52.1178 2.94421 51.8 3.07797C51.4823 3.21173 51.197 3.41339 50.9636 3.6691C50.4644 4.24777 50.2049 4.99837 50.2388 5.76521V7.84195H60.5934V24.2621H57.5254V10.6548H50.2388Z" fill="black"/>
<path d="M71.1511 24.797C70.0344 24.8289 68.9233 24.6248 67.8892 24.1978C66.855 23.7708 65.9205 23.1303 65.1455 22.3173C63.5769 20.6222 62.7312 18.3719 62.7908 16.0522C62.7908 13.526 63.5757 11.4377 65.1455 9.78712C65.9205 8.97412 66.855 8.3336 67.8892 7.9066C68.9233 7.4796 70.0344 7.27552 71.1511 7.30743C72.6756 7.26056 74.1773 7.68862 75.4527 8.53354C76.7281 9.37846 77.7153 10.5993 78.2804 12.0305L75.4962 13.1928C74.6346 11.1264 73.1198 10.0932 70.9517 10.0932C70.2619 10.0933 69.5805 10.2463 68.9556 10.5416C68.3307 10.8368 67.7776 11.267 67.3353 11.8019C66.3292 12.9695 65.7965 14.4778 65.8435 16.0251C65.7965 17.5724 66.3292 19.0807 67.3353 20.2483C67.7746 20.7876 68.326 21.2227 68.9503 21.5226C69.5746 21.8226 70.2566 21.9801 70.9479 21.9841C73.1799 21.9841 74.7497 20.9509 75.6573 18.8845L78.3763 20.0468C77.8209 21.4688 76.8411 22.6807 75.5729 23.5145C74.2571 24.3746 72.7182 24.821 71.1511 24.797Z" fill="black"/>
<path d="M84.2861 2.17748C84.2921 2.46592 84.239 2.7525 84.1301 3.01921C84.0212 3.28592 83.8589 3.52699 83.6533 3.72728C83.4521 3.93112 83.213 4.09285 82.9497 4.20319C82.6865 4.31354 82.4043 4.37034 82.1193 4.37034C81.8343 4.37034 81.5521 4.31354 81.2889 4.20319C81.0257 4.09285 80.7866 3.93112 80.5853 3.72728C80.381 3.52624 80.2198 3.28494 80.1116 3.01834C80.0034 2.75175 79.9506 2.46555 79.9564 2.17748C79.9512 1.8895 80.0044 1.6035 80.1125 1.33701C80.2207 1.07051 80.3816 0.829137 80.5853 0.627672C80.7866 0.423832 81.0257 0.262109 81.2889 0.151763C81.5521 0.0414182 81.8343 -0.0153809 82.1193 -0.0153809C82.4043 -0.0153809 82.6865 0.0414182 82.9497 0.151763C83.213 0.262109 83.4521 0.423832 83.6533 0.627672C83.8583 0.828387 84.0203 1.06954 84.1291 1.33615C84.238 1.60276 84.2914 1.88913 84.2861 2.17748ZM83.6533 7.84202V24.2622H80.5853V7.84202H83.6533Z" fill="black"/>
<path d="M94.0693 24.7969C92.9676 24.8306 91.8715 24.6269 90.8538 24.1994C89.8362 23.7718 88.9203 23.1302 88.1672 22.3172C86.6178 20.6667 85.8431 18.5783 85.8431 16.0521C85.8431 13.5259 86.5948 11.4427 88.0981 9.80254C88.8229 8.98783 89.7147 8.34254 90.7115 7.91161C91.7083 7.48068 92.7861 7.27447 93.8698 7.30735C96.2808 7.30735 98.1983 8.09388 99.6224 9.66693C101.046 11.24 101.761 13.442 101.766 16.273L101.732 16.6062H88.9725C88.966 17.327 89.1036 18.0417 89.3771 18.7075C89.6506 19.3732 90.0543 19.9764 90.5641 20.4807C91.0454 20.959 91.616 21.3357 92.2428 21.5892C92.8696 21.8426 93.54 21.9676 94.215 21.9569C96.1606 21.9569 97.6857 20.9741 98.7902 19.0084L101.513 20.349C100.818 21.7089 99.7627 22.8466 98.4642 23.6346C97.1331 24.4235 95.6122 24.8257 94.0693 24.7969ZM89.195 14.0761H98.5141C98.4826 13.5341 98.3446 13.0039 98.1082 12.5163C97.8719 12.0287 97.5418 11.5935 97.1373 11.2361C96.2059 10.4514 95.0159 10.0502 93.8046 10.1125C92.7181 10.0885 91.6611 10.4707 90.8363 11.1857C89.9849 11.9369 89.4071 12.9545 89.195 14.0761Z" fill="black"/>
<path d="M103.856 7.84206H106.775V10.1203H106.905C107.423 9.26488 108.163 8.56937 109.045 8.1094C109.961 7.5863 110.995 7.31011 112.048 7.30737C114.039 7.30737 115.573 7.88209 116.65 9.03153C117.726 10.181 118.259 11.8199 118.249 13.9483V24.2623H115.2V14.142C115.131 11.4609 113.793 10.1203 111.185 10.1203C110.599 10.1196 110.02 10.2548 109.493 10.5154C108.967 10.776 108.506 11.1551 108.148 11.6236C107.329 12.6261 106.893 13.8924 106.92 15.192V24.2623H103.872L103.856 7.84206Z" fill="black"/>
<path d="M126.74 24.5296C125.521 24.574 124.335 24.1281 123.442 23.2897C122.567 22.4632 122.12 21.3124 122.099 19.8375V10.6549H119.246V7.84205H122.099V2.80518H125.148V7.84205H129.129V10.6549H125.148V18.834C125.148 19.9267 125.359 20.6693 125.781 21.0619C126.162 21.4371 126.672 21.6471 127.204 21.6469C127.444 21.6476 127.683 21.6203 127.917 21.5656C128.139 21.5126 128.356 21.44 128.565 21.3486L129.528 24.0956C128.63 24.4018 127.687 24.5486 126.74 24.5296Z" fill="black"/>
<path d="M154.609 8.00464V15.5522C154.609 15.655 154.649 15.7535 154.721 15.8262C154.793 15.8988 154.891 15.9396 154.992 15.9396H156.929C157.002 15.9434 157.071 15.9678 157.131 16.0102C157.19 16.0525 157.236 16.1109 157.264 16.1786C157.292 16.2464 157.3 16.3207 157.287 16.3929C157.275 16.4652 157.242 16.5324 157.194 16.5867L152.803 21.0153C152.731 21.0851 152.636 21.1241 152.536 21.1241C152.437 21.1241 152.341 21.0851 152.27 21.0153L147.878 16.5828C147.83 16.5282 147.797 16.4607 147.785 16.3881C147.773 16.3156 147.781 16.241 147.809 16.1731C147.837 16.1052 147.884 16.0468 147.944 16.0048C148.004 15.9628 148.074 15.9388 148.147 15.9358H150.087C150.189 15.9358 150.287 15.895 150.359 15.8223C150.431 15.7496 150.471 15.6511 150.471 15.5483V11.2864C150.47 10.8914 150.356 10.5052 150.144 10.1735C149.932 9.8418 149.63 9.57867 149.274 9.41541C148.918 9.25214 148.523 9.19562 148.137 9.25255C147.75 9.30948 147.387 9.47747 147.092 9.73655C146.904 9.90315 146.709 10.0775 146.54 10.2635C144.968 11.9192 144.183 14.0076 144.185 16.5286C144.188 19.0496 144.973 21.1392 146.54 22.7975C147.314 23.6104 148.248 24.2509 149.282 24.6779C150.315 25.105 151.426 25.3091 152.542 25.2772C153.654 25.311 154.76 25.1076 155.789 24.6804C156.818 24.2531 157.746 23.6115 158.513 22.7975C160.103 21.1651 160.9 19.0754 160.902 16.5286C160.939 15.3759 160.746 14.2276 160.336 13.1515C159.925 12.0754 159.306 11.0934 158.513 10.2635C157.464 9.1332 156.104 8.3464 154.609 8.00464Z" fill="url(#paint0_linear_1234_934)"/>
<path d="M147.077 1.96045H130.579V5.9512H136.745V24.2699H140.91V5.9512H147.077V1.96045Z" fill="url(#paint1_linear_1234_934)"/>
<path d="M174.559 8.65949L174.804 10.8408H174.559C174.135 10.147 173.539 9.5778 172.829 9.1903C171.939 8.71301 170.94 8.48304 169.934 8.52388C168.98 8.52024 168.038 8.72788 167.172 9.13218C166.304 9.53558 165.522 10.1068 164.871 10.8137C164.182 11.56 163.642 12.4335 163.28 13.3864C162.881 14.429 162.684 15.5389 162.697 16.6565C162.684 17.7741 162.881 18.8839 163.28 19.9266C163.641 20.8689 164.178 21.7329 164.86 22.4721C165.511 23.179 166.293 23.7503 167.161 24.1537C168.026 24.558 168.969 24.7656 169.922 24.762C170.93 24.7969 171.93 24.5602 172.818 24.0762C173.527 23.6887 174.124 23.1195 174.547 22.4256H174.793V24.2622H178.585V1.96045H174.559V8.65949ZM174.467 18.4775C174.259 18.9884 173.954 19.4531 173.569 19.8452C173.206 20.2174 172.772 20.5101 172.292 20.7054C171.805 20.9035 171.284 21.0035 170.758 20.9998C170.231 21.0029 169.709 20.8974 169.224 20.6899C168.755 20.4823 168.331 20.185 167.974 19.8142C167.588 19.4221 167.284 18.9557 167.08 18.4426C166.625 17.2829 166.625 15.9913 167.08 14.8316C167.284 14.3185 167.588 13.8521 167.974 13.46C168.339 13.0859 168.775 12.7895 169.255 12.5882C169.739 12.3776 170.262 12.2707 170.789 12.2744C171.315 12.2719 171.836 12.3733 172.323 12.5727C172.803 12.765 173.238 13.0567 173.6 13.429C173.986 13.8219 174.291 14.288 174.497 14.8006C174.732 15.3834 174.846 16.0082 174.835 16.6371C174.836 17.2694 174.711 17.8953 174.467 18.4775Z" fill="url(#paint2_linear_1234_934)"/>
<path d="M187.326 8.5239C184.549 8.5239 182.359 9.54161 180.756 11.577L183.698 13.584C184.112 13.0301 184.648 12.581 185.264 12.2724C185.879 11.9638 186.558 11.804 187.245 11.8056C188.105 11.7768 188.947 12.0599 189.619 12.6038C189.922 12.8399 190.167 13.1443 190.333 13.4927C190.5 13.8411 190.583 14.224 190.578 14.6108V15.0796C190.065 14.8813 189.54 14.7195 189.005 14.5953C188.204 14.4238 187.385 14.3458 186.566 14.3628C185.736 14.3558 184.91 14.476 184.116 14.7193C183.403 14.9391 182.738 15.2941 182.156 15.7654C181.612 16.2095 181.17 16.7673 180.86 17.4004C180.546 18.0668 180.388 18.7974 180.399 19.5353C180.391 20.2646 180.537 20.9874 180.829 21.6546C181.108 22.2858 181.519 22.8487 182.033 23.3052C182.564 23.7712 183.175 24.135 183.836 24.3784C184.542 24.64 185.289 24.7712 186.041 24.7659C186.94 24.8034 187.833 24.5874 188.618 24.1421C189.267 23.7436 189.845 23.2381 190.328 22.6465H190.578V24.2661H194.555V15.1106C194.555 12.9279 193.938 11.2813 192.706 10.1706C191.474 9.05988 189.68 8.51099 187.326 8.5239ZM190.302 19.4152C190.132 19.8348 189.88 20.2155 189.561 20.5349C188.859 21.2321 187.911 21.6194 186.927 21.612C186.3 21.621 185.688 21.4238 185.182 21.0502C184.941 20.8849 184.745 20.6616 184.611 20.4005C184.477 20.1394 184.41 19.8487 184.415 19.5547C184.414 19.2424 184.488 18.9345 184.63 18.6572C184.772 18.3799 184.978 18.1415 185.232 17.9622C185.883 17.4971 186.672 17.2714 187.467 17.3229C188.025 17.3174 188.58 17.3851 189.12 17.5244C189.624 17.6608 190.115 17.8437 190.585 18.0707C190.58 18.5272 190.483 18.9778 190.302 19.3958V19.4152Z" fill="url(#paint3_linear_1234_934)"/>
<path d="M203.828 18.2567H203.609L199.785 9.00439H195.191L201.546 23.5222L198.182 31.0039H202.531L212 9.00439H207.498L203.828 18.2567Z" fill="url(#paint4_linear_1234_934)"/>
<defs>
<linearGradient id="paint0_linear_1234_934" x1="113.946" y1="35.413" x2="229.981" y2="-19.9115" gradientUnits="userSpaceOnUse">
<stop stop-color="#371868"/>
<stop offset="1" stop-color="#A75DCE"/>
</linearGradient>
<linearGradient id="paint1_linear_1234_934" x1="109.421" y1="25.9243" x2="225.459" y2="-29.4002" gradientUnits="userSpaceOnUse">
<stop stop-color="#371868"/>
<stop offset="1" stop-color="#A75DCE"/>
</linearGradient>
<linearGradient id="paint2_linear_1234_934" x1="117.11" y1="42.0539" x2="233.148" y2="-13.2705" gradientUnits="userSpaceOnUse">
<stop stop-color="#371868"/>
<stop offset="1" stop-color="#A75DCE"/>
</linearGradient>
<linearGradient id="paint3_linear_1234_934" x1="120.88" y1="49.9541" x2="236.915" y2="-5.37036" gradientUnits="userSpaceOnUse">
<stop stop-color="#371868"/>
<stop offset="1" stop-color="#A75DCE"/>
</linearGradient>
<linearGradient id="paint4_linear_1234_934" x1="123.975" y1="56.4478" x2="240.009" y2="1.12341" gradientUnits="userSpaceOnUse">
<stop stop-color="#371868"/>
<stop offset="1" stop-color="#A75DCE"/>
</linearGradient>
</defs>
</svg>
